<?xml version="1.0" encoding="utf-8"?>
<!-- Generator: Adobe Illustrator 21.0.0, SVG Export Plug-In . SVG Version: 6.00 Build 0)  -->
<svg version="1.1" id="Layer_1" xmlns="http://www.w3.org/2000/svg" xmlns:xlink="http://www.w3.org/1999/xlink" x="0px" y="0px"
	 viewBox="0 0 202 68" style="enable-background:new 0 0 202 68;" xml:space="preserve">
<style type="text/css">
	.st0{fill:#0058A3;}
	.st1{fill:#231F20;}
</style>
<path class="st0" d="M1,37.5h10.7c5,0,10.5,1.1,10.5,7.3c0,3.2-2,5.4-4.9,6.3v0.1c3.8,0.5,6.3,3.3,6.3,7c0,6-5.7,8-10.8,8H1V37.5z
	 M7.3,48.9h4.6c1.9,0,4-0.8,4-3.1c0-2.4-2.3-3-4.2-3H7.3V48.9z M7.3,60.8H13c2,0,4.2-0.8,4.2-3.4c0-2.7-3-3.2-5.1-3.2H7.3V60.8z"/>
<polygon class="st0" points="26.2,37.5 34.8,37.5 46.9,57.4 47,57.4 47,37.5 53.3,37.5 53.3,66.1 45.1,66.1 32.6,45.7 32.5,45.7 
	32.5,66.1 26.2,66.1 "/>
<path class="st0" d="M67.8,37.5H73l12.5,28.6h-7.1L75.9,60H64.7l-2.4,6.1h-7L67.8,37.5z M70.2,45.8l-3.5,8.9h7L70.2,45.8z"/>
<path class="st1" d="M16.4,16.6L16.4,16.6c3-1,5.1-3.2,5.1-6.5c0-5.4-4.6-7.4-9-7.4H1v29.5h10.6c5.6,0,11.2-2,11.2-8.4
	C22.8,19.9,20.1,17,16.4,16.6 M6.3,7.1h4.3c4,0,5.7,1.3,5.7,3.8c0,2.2-1.8,3.7-5.3,3.7H6.3V7.1z M11.1,27.6H6.3v-8.5h5
	c4.3,0,6.3,1.1,6.3,4.2C17.6,27.2,13.8,27.6,11.1,27.6 M45.5,11.6c-6,0-10.9,4.2-10.9,10.5c0,6.3,4.8,10.5,10.9,10.5
	c6,0,10.9-4.2,10.9-10.5C56.4,15.8,51.5,11.6,45.5,11.6 M45.5,28.1c-3.7,0-5.9-2.9-5.9-6c0-3.1,2.2-6,5.9-6c3.7,0,5.9,2.9,5.9,6
	C51.4,25.2,49.1,28.1,45.5,28.1 M69.5,11.6c-6,0-10.9,4.2-10.9,10.5c0,6.3,4.8,10.5,10.9,10.5c6,0,10.9-4.2,10.9-10.5
	C80.4,15.8,75.6,11.6,69.5,11.6 M69.5,28.1c-3.7,0-5.9-2.9-5.9-6c0-3.1,2.2-6,5.9-6c3.7,0,5.9,2.9,5.9,6
	C75.4,25.2,73.2,28.1,69.5,28.1 M114.5,20.2v11.9h-5V20.8c0-2.5-0.7-4.7-3.7-4.7c-3.1,0-4.3,2.6-4.3,5.2v10.8h-5V20.2
	c0-2.5-1-4.1-3.4-4.1c-3.3,0-4.6,2.4-4.6,5.1v10.9h-5v-20h4.8v3.1h0.1c0.9-1.9,2.8-3.6,6.1-3.6c3.1,0,5.2,1.2,6.3,3.7
	c1.5-2.5,3.6-3.7,6.6-3.7C112.6,11.6,114.5,15.4,114.5,20.2 M130.5,11.6c-3.8,0-5.8,1.8-6.8,3h-0.1V1.9h-5v30.2h4.8v-3h0.1
	c1.5,2.4,4.1,3.5,6.9,3.5c6.2,0,9.9-4.6,9.9-10.5C140.1,16.2,136.2,11.6,130.5,11.6 M129.2,28.1c-3.7,0-5.9-2.9-5.9-6
	c0-3.1,2.2-6,5.9-6c3.7,0,5.9,2.9,5.9,6C135.1,25.2,132.9,28.1,129.2,28.1 M153.3,11.6c-6,0-10.9,4.2-10.9,10.5
	c0,6.3,4.8,10.5,10.9,10.5c3.2,0,6.1-1.1,8.5-4l-3.6-2.7c-1.2,1.5-2.9,2.7-5.4,2.7c-2.8,0-5-1.8-5.4-4.8h15.3v-1.4
	C162.7,15.5,158.9,11.6,153.3,11.6 M147.4,20.1c0.4-2.9,2.2-4.8,5.2-4.8c3.1,0,5,1.8,5.1,4.8H147.4z M176.9,11.6
	c0.6,0,1.2,0.1,1.8,0.3v4.8c-0.8-0.2-1.6-0.4-2.4-0.4c-4.7,0-5.4,4-5.4,5v10.7h-5v-20h5v3.2h0.1C172.1,13,174.3,11.6,176.9,11.6
	 M196.2,12.1v3h-0.1c-1.5-2.4-4.1-3.5-6.9-3.5c-6.2,0-9.9,4.6-9.9,10.5c0,5.7,4,10.3,10,10.3c2.5,0,5.1-1,6.5-2.9h0.1v1.5
	c0,4-1.5,6.7-6.3,6.7c-2.8,0-4.9-1-6.9-2.9l-3,4.1c2.8,2.5,6.2,3.3,9.9,3.3c7.8,0,11.3-4.6,11.3-11.8V12.1H196.2z M190.3,27.9
	c-3.4,0-5.9-2.6-5.9-5.8c0-3.5,2.4-6,5.9-6c3.6,0,5.9,2.4,5.9,5.9C196.2,25.3,194,27.9,190.3,27.9 M31.2,32.1h-5.1V1.9h5.1V32.1z"/>
</svg>
